<svg height="512" viewBox="0 0 64 64" width="512" xmlns="http://www.w3.org/2000/svg"><g id="Sport-Table_Tennis" data-name="Sport-Table Tennis"><path style="fill:#dbdcd7" d="m35.47 45.884-23.354-23.353a20.878 20.878 0 0 0 2.416 12.452l2.911-2.912a1 1 0 0 1 1.414 0l7.072 7.071a1 1 0 0 1 0 1.414l-2.912 2.912a20.883 20.883 0 0 0 12.453 2.416z"/><path style="fill:#dbdcd7" d="m5.423 52.577a4 4 0 0 0 5.657 0l12.728-12.728-5.658-5.657-12.727 12.728a4 4 0 0 0 0 5.657z"/><path style="fill:#dbdcd7" d="m47.853 10.146a21.016 21.016 0 0 0 -35.3 10l25.3 25.3a21.016 21.016 0 0 0 10-35.3z"/><circle style="fill:#dbdcd7" cx="55" cy="55" r="5"/><path style="fill:#dbdcd7" d="m42 50h4v2h-4z"/><path style="fill:#dbdcd7" d="m38 50h2v2h-2z"/><path style="fill:#dbdcd7" d="m44 54h2v2h-2z"/><path style="fill:#dbdcd7" d="m35 54h7v2h-7z"/><path style="fill:#dbdcd7" d="m38 58h8v2h-8z"/><path style="fill:#dbdcd7" d="m32 58h4v2h-4z"/></g></svg>