<svg id="Layer_5" enable-background="new 0 0 64 64" height="512" viewBox="0 0 64 64" width="512" xmlns="http://www.w3.org/2000/svg"><path style="fill:#dbdcd7" d="m44.297 43.304 1.436 1.393c3.509-3.619 6.398-7.744 8.588-12.26l-1.8-.873c-2.096 4.324-4.863 8.274-8.224 11.74z"/><path style="fill:#dbdcd7" d="m54.193 27.651c-.246.659-.506 1.312-.782 1.956l1.84.785c.287-.674.56-1.355.816-2.044z"/><path style="fill:#dbdcd7" d="m19.304 18.267c-3.697 3.585-6.763 7.715-9.113 12.275l1.777.916c2.251-4.367 5.188-8.322 8.729-11.756z"/><path style="fill:#dbdcd7" d="m8.327 34.63 1.857.74c.263-.66.542-1.312.835-1.956l-1.82-.828c-.306.672-.597 1.354-.872 2.044z"/><path style="fill:#dbdcd7" d="m52 1c-28.122 0-51 22.879-51 51 0 6.065 4.935 11 11 11 28.122 0 51-22.879 51-51 0-6.065-4.935-11-11-11zm9 11c0 1.477-.077 2.936-.206 4.38l-13.174-13.174c1.444-.129 2.903-.206 4.38-.206 4.962 0 9 4.037 9 9zm-.497 6.917c-.365 2.569-.922 5.075-1.67 7.501l-21.252-21.25c2.426-.748 4.933-1.306 7.502-1.671zm-55.335 18.665 21.251 21.25c-2.426.748-4.933 1.306-7.502 1.671l-15.42-15.42c.365-2.569.922-5.076 1.671-7.501zm-2.168 14.418c0-1.477.077-2.936.206-4.38l13.174 13.174c-1.444.129-2.903.206-4.38.206-4.962 0-9-4.037-9-9zm25.536 6.122-22.658-22.657c4.94-13.737 15.849-24.646 29.586-29.586l22.658 22.657c-4.94 13.736-15.849 24.645-29.586 29.586z"/><path style="fill:#dbdcd7" d="m44 34.414 4.414-4.414-5-5 1.672-1.672c.581-.581.914-1.385.914-2.207 0-1.721-1.4-3.121-3.121-3.121-.834 0-1.618.324-2.207.914l-1.672 1.672-5-5-4.414 4.414 5 5-2.586 2.586-5-5-4.414 4.414 5 5-2.586 2.586-5-5-4.414 4.414 5 5-1.672 1.672c-.581.581-.914 1.385-.914 2.207 0 1.721 1.4 3.121 3.121 3.121.834 0 1.618-.324 2.207-.914l1.672-1.672 5 5 4.414-4.414-5-5 2.586-2.586 5 5 4.414-4.414-5-5 2.586-2.586zm1.586-4.414-1.586 1.586-3.586-3.586 1.586-1.586zm-13.172-10 1.586-1.586 3.586 3.586-1.586 1.586zm-7 7 1.586-1.586 3.586 3.586-1.586 1.586zm-7 7 1.586-1.586 3.586 3.586-1.586 1.586zm3.5 9.672c-.212.212-.493.328-.793.328-.618 0-1.121-.503-1.121-1.121 0-.295.12-.584.328-.793l21.758-21.758c.212-.212.493-.328.793-.328.618 0 1.121.503 1.121 1.121 0 .295-.12.584-.328.793zm9.672.328-1.586 1.586-3.586-3.586 1.586-1.586zm7-7-1.586 1.586-3.586-3.586 1.586-1.586z"/></svg>