<svg id="Layer_3" enable-background="new 0 0 64 64" height="512" viewBox="0 0 64 64" width="512" xmlns="http://www.w3.org/2000/svg"><path style="fill:#dbdcd7" d="m61 32c0 2.192-.253 4.325-.716 6.379l-.369-.492c-1.275-1.7-2.635-3.322-4.067-4.866.713-.578 1.457-1.125 2.263-1.594l2.797-1.631c.055.728.092 1.461.092 2.204zm-29.292 28.993c-4.473-.044-8.705-1.105-12.478-2.964 12.716-6.418 22.855-16.802 29.036-29.349 1.634 1.324 3.198 2.738 4.689 4.238-2.828 2.859-4.755 6.53-5.47 10.58l-.059.328c-.85 4.817-3.671 9.136-7.741 11.849zm17.44-34.176c2.022-4.456 3.55-9.166 4.529-14.052 3.632 4.089 6.132 9.204 6.991 14.854l-3.566 2.08c-.948.553-1.842 1.179-2.674 1.867-1.673-1.688-3.432-3.276-5.28-4.749zm2.833-15.805-.046.254c-.905 4.977-2.401 9.773-4.418 14.304-2.154-1.602-4.398-3.073-6.739-4.376.141-.664.222-1.349.222-2.05v-1.156c0-3.471-1.757-6.641-4.7-8.48l-9.617-6.011c1.725-.321 3.5-.497 5.317-.497 7.74 0 14.776 3.054 19.981 8.012zm-28.034-6.866 11.293 7.058c2.354 1.471 3.76 4.007 3.76 6.784v1.156c0 .365-.033.723-.082 1.076-6.971-3.573-14.629-5.828-22.594-6.511l-6.349-.544c3.634-4.243 8.468-7.425 13.972-9.019zm-15.453 10.9 7.66.656c7.847.672 15.386 2.924 22.229 6.493-1.066 2.558-3.422 4.483-6.302 4.876l-.424.058c-9.039 1.232-17.24 6.214-22.501 13.667l-3.025 4.286c-1.998-3.934-3.131-8.377-3.131-13.082 0-6.326 2.042-12.182 5.494-16.954zm-1.289 31.981 3.585-5.078c4.942-7.001 12.647-11.681 21.137-12.839l.424-.058c3.529-.481 6.428-2.805 7.796-5.909 2.253 1.274 4.419 2.702 6.49 4.263-6.171 12.741-16.527 23.217-29.572 29.442-4.025-2.428-7.417-5.805-9.86-9.821zm28.457 13.734 5.133-3.422c4.522-3.015 7.657-7.813 8.601-13.164l.059-.328c.641-3.633 2.383-6.912 4.913-9.481 1.39 1.498 2.71 3.072 3.947 4.722l1.306 1.741c-3.384 10.562-12.669 18.502-23.959 19.932z"/></svg>