<svg id="Capa_1" enable-background="new 0 0 512.213 512.213" height="512" viewBox="0 0 512.213 512.213" width="512" xmlns="http://www.w3.org/2000/svg">
	<path style="fill:#dbdcd7" d="m143.932 122.613v-36.212c0-3.977-1.575-7.789-4.393-10.607l-71.29-71.291c-5.863-5.861-15.35-5.861-21.213 0l-42.427 42.427c-5.861 5.863-5.861 15.35 0 21.213l71.291 71.29c2.818 2.818 6.63 4.393 10.607 4.393h36.213l48.64 48.64 21.213-21.213z"/>
	<path style="fill:#dbdcd7" d="m319.853 340.959 48.64 48.64v36.213c0 3.977 1.575 7.789 4.393 10.607l71.291 71.291c5.863 5.861 15.35 5.861 21.213 0l42.427-42.427c5.861-5.863 5.861-15.35 0-21.213l-71.291-71.291c-2.818-2.818-6.63-4.393-10.607-4.393h-36.213l-48.64-48.64z"/>
	<path style="fill:#dbdcd7" d="m309.246 203.074c-5.94-5.94-15.273-5.94-21.213 0l-31.82 31.82 21.213 21.213 31.82-31.82c5.94-5.941 5.94-15.274 0-21.213z"/>
	<path style="fill:#dbdcd7" d="m203.18 287.926c-5.94 5.94-5.94 15.273 0 21.213s15.273 5.94 21.213 0l31.82-31.82-21.213-21.213z"/>
	<path style="fill:#dbdcd7" d="m266.82 181.861c17.607-17.607 46.031-17.607 63.638 0s17.607 46.031 0 63.638l-31.82 31.82 42.427 42.427 76.172-76.174c59.185-59.183 93.278-138.673 94.975-222.254l-68.67 68.67c-5.94 5.94-15.273 5.94-21.213 0s-5.94-15.273 0-21.213l68.671-68.669c-83.58 1.697-163.07 35.79-222.254 94.975l-76.174 76.172 42.428 42.428zm134.297-49.444c5.94-5.942 15.273-5.942 21.213 0 5.94 5.94 5.94 15.273 0 21.213s-15.273 5.94-21.213 0c-5.942-5.94-5.942-15.273 0-21.213zm-42.427-42.428c5.94-5.94 15.273-5.94 21.213 0 5.942 5.94 5.942 15.273 0 21.213-5.94 5.942-15.273 5.942-21.213 0-5.94-5.94-5.94-15.273 0-21.213z"/>
	<path style="fill:#dbdcd7" d="m245.605 330.352c-17.607 17.607-46.031 17.607-63.638 0s-17.607-46.031 0-63.638l31.82-31.82-42.427-42.427-76.172 78.64c-59.185 59.185-93.491 136.206-95.188 219.787l68.883-66.204c5.94-5.94 15.273-5.94 21.213 0s5.94 15.273 0 21.213l-68.883 66.204c83.58-1.697 163.283-33.324 222.466-92.507l76.174-78.64-42.427-42.427zm-134.296 51.912c-5.94 5.94-15.273 5.94-21.213 0-5.94-5.942-5.94-15.275 0-21.215s15.273-5.94 21.213 0c5.941 5.941 5.941 15.273 0 21.215zm42.427 42.426c-5.94 5.94-15.273 5.94-21.213 0-5.942-5.94-5.942-15.273 0-21.213 5.94-5.94 15.273-5.94 21.213 0s5.94 15.273 0 21.213z"/></svg>